<svg xmlns="http://www.w3.org/2000/svg" style="display:none">
  <symbol id="icon-tooth" viewBox="0 0 24 24" fill="none" stroke="currentColor" stroke-width="1.5" stroke-linecap="round" stroke-linejoin="round"><path d="M12 2C9.5 2 7.5 3.5 7 6c-.3 1.5-.1 3 .5 4.5.8 2 2 5 3 7.5.4 1 .8 2 1.5 3 .7-1 1.1-2 1.5-3 1-2.5 2.2-5.5 3-7.5.6-1.5.8-3 .5-4.5C16.5 3.5 14.5 2 12 2z"/><path d="M10 8.5c0-1.1.9-2 2-2s2 .9 2 2"/></symbol>
  <symbol id="icon-sparkle" viewBox="0 0 24 24" fill="none" stroke="currentColor" stroke-width="1.5" stroke-linecap="round" stroke-linejoin="round"><path d="M12 2l2.4 7.2L22 12l-7.6 2.8L12 22l-2.4-7.2L2 12l7.6-2.8z"/><path d="M18 3l.8 2.4L21 6l-2.2.6L18 9l-.8-2.4L15 6l2.2-.6z"/></symbol>
  <symbol id="icon-align" viewBox="0 0 24 24" fill="none" stroke="currentColor" stroke-width="1.5" stroke-linecap="round" stroke-linejoin="round"><path d="M4 8c0-1 .5-2 2-2.5C7.5 5 9.5 5 12 5s4.5 0 6 .5c1.5.5 2 1.5 2 2.5"/><path d="M4 8c0 2 1.5 4 3 5s3 2 5 2 3.5-1 5-2 3-3 3-5"/><path d="M5 16c0 2 1.5 3.5 3 4.5S11 22 12 22s1.5-.5 4-1.5 3-2.5 3-4.5"/></symbol>
  <symbol id="icon-implant" viewBox="0 0 24 24" fill="none" stroke="currentColor" stroke-width="1.5" stroke-linecap="round" stroke-linejoin="round"><rect x="8" y="2" width="8" height="5" rx="1"/><path d="M9 7v1.5h6V7"/><path d="M10 10h4M10.5 12.5h3M11 15h2M11.5 17.5h1"/><path d="M12 19v3"/></symbol>
  <symbol id="icon-emergency" viewBox="0 0 24 24" fill="none" stroke="currentColor" stroke-width="1.5" stroke-linecap="round" stroke-linejoin="round"><circle cx="12" cy="12" r="10"/><path d="M13 7h4l-6 9v-5H7l6-9z"/></symbol>
  <symbol id="icon-child" viewBox="0 0 24 24" fill="none" stroke="currentColor" stroke-width="1.5" stroke-linecap="round" stroke-linejoin="round"><circle cx="12" cy="11" r="8"/><circle cx="9.5" cy="9.5" r=".75" fill="currentColor"/><circle cx="14.5" cy="9.5" r=".75" fill="currentColor"/><path d="M8.5 13.5c1 1.5 2.2 2 3.5 2s2.5-.5 3.5-2"/></symbol>
  <symbol id="icon-extraction" viewBox="0 0 24 24" fill="none" stroke="currentColor" stroke-width="1.5" stroke-linecap="round" stroke-linejoin="round"><path d="M9 13c-.5 1.5-1 3.5-1 5 0 1.5.5 2.5 1.5 3s2-.5 2.5-2c.5 1.5 1.5 2.5 2.5 2s1.5-1.5 1.5-3c0-1.5-.5-3.5-1-5"/><path d="M9 13c0-2 .5-4 1-5.5S11.5 4 12 4s1.5 2 2 3.5 1 3.5 1 5.5"/><path d="M12 4V1M10 1.5l2-.5 2 .5"/></symbol>
  <symbol id="icon-sedation" viewBox="0 0 24 24" fill="none" stroke="currentColor" stroke-width="1.5" stroke-linecap="round" stroke-linejoin="round"><path d="M20.354 15.354A9 9 0 018.646 3.646 9.003 9.003 0 0012 21a9.003 9.003 0 008.354-5.646z"/><path d="M15 3l1 2 2 1-2 1-1 2-1-2-2-1 2-1z"/></symbol>
  <symbol id="icon-whitening" viewBox="0 0 24 24" fill="none" stroke="currentColor" stroke-width="1.5" stroke-linecap="round" stroke-linejoin="round"><circle cx="12" cy="12" r="4"/><path d="M12 2v2M12 20v2M4.93 4.93l1.41 1.41M17.66 17.66l1.41 1.41M2 12h2M20 12h2M4.93 19.07l1.41-1.41M17.66 6.34l1.41-1.41"/></symbol>
  <symbol id="icon-rootcanal" viewBox="0 0 24 24" fill="none" stroke="currentColor" stroke-width="1.5" stroke-linecap="round" stroke-linejoin="round"><path d="M12 4c-2 0-3.5 1.5-4 3.5-.3 1-.2 2.2.2 3.5"/><path d="M12 4c2 0 3.5 1.5 4 3.5.3 1 .2 2.2-.2 3.5"/><path d="M8.2 11c.5 1.5 1.2 3 2 4.5L12 19l1.8-3.5c.8-1.5 1.5-3 2-4.5"/><line x1="12" y1="19" x2="12" y2="22"/><circle cx="12" cy="8" r="1.5"/></symbol>
  <symbol id="icon-crown" viewBox="0 0 24 24" fill="none" stroke="currentColor" stroke-width="1.5" stroke-linecap="round" stroke-linejoin="round"><path d="M3 18h18l-2-12-4 4-3-6-3 6-4-4z"/><path d="M3 18v2h18v-2"/></symbol>
  <symbol id="icon-veneers" viewBox="0 0 24 24" fill="none" stroke="currentColor" stroke-width="1.5" stroke-linecap="round" stroke-linejoin="round"><path d="M12 3L2 9l10 6 10-6z"/><path d="M2 14l10 6 10-6"/></symbol>
  <symbol id="icon-shield" viewBox="0 0 24 24" fill="none" stroke="currentColor" stroke-width="1.5" stroke-linecap="round" stroke-linejoin="round"><path d="M12 2l8 4v6c0 5.25-3.5 8.5-8 10-4.5-1.5-8-4.75-8-10V6z"/><path d="M9 12l2 2 4-4"/></symbol>
  <symbol id="icon-surgery" viewBox="0 0 24 24" fill="none" stroke="currentColor" stroke-width="1.5" stroke-linecap="round" stroke-linejoin="round"><path d="M7 20l-3 3M18 4l2.5-2M18 4L7 20"/><path d="M18 4c1 0 3 1 3 3-1 0-3 .5-4.5 2L7 20"/></symbol>
  <symbol id="icon-xray" viewBox="0 0 24 24" fill="none" stroke="currentColor" stroke-width="1.5" stroke-linecap="round" stroke-linejoin="round"><rect x="3" y="3" width="18" height="18" rx="2"/><circle cx="12" cy="10" r="3"/><path d="M12 13v4M9 15h6"/></symbol>
  <symbol id="icon-sealant" viewBox="0 0 24 24" fill="none" stroke="currentColor" stroke-width="1.5" stroke-linecap="round" stroke-linejoin="round"><path d="M12 2C8 6 4 8 4 13a8 8 0 0016 0c0-5-4-7-8-11z"/></symbol>
  <symbol id="icon-screening" viewBox="0 0 24 24" fill="none" stroke="currentColor" stroke-width="1.5" stroke-linecap="round" stroke-linejoin="round"><path d="M1 12s4-8 11-8 11 8 11 8-4 8-11 8S1 12 1 12z"/><circle cx="12" cy="12" r="3"/></symbol>
  <symbol id="icon-compassion" viewBox="0 0 24 24" fill="none" stroke="currentColor" stroke-width="1.5" stroke-linecap="round" stroke-linejoin="round"><path d="M20.42 4.58a5.4 5.4 0 00-7.65 0L12 5.34l-.77-.76a5.4 5.4 0 00-7.65 0 5.4 5.4 0 000 7.65L12 20.65l8.42-8.42a5.4 5.4 0 000-7.65z"/></symbol>
  <symbol id="icon-tech" viewBox="0 0 24 24" fill="none" stroke="currentColor" stroke-width="1.5" stroke-linecap="round" stroke-linejoin="round"><rect x="6" y="6" width="12" height="12" rx="2"/><path d="M9 1v5M15 1v5M9 18v5M15 18v5M1 9h5M1 15h5M18 9h5M18 15h5"/></symbol>
  <symbol id="icon-family" viewBox="0 0 24 24" fill="none" stroke="currentColor" stroke-width="1.5" stroke-linecap="round" stroke-linejoin="round"><circle cx="7" cy="5" r="2"/><circle cx="17" cy="5" r="2"/><circle cx="12" cy="8" r="1.5"/><path d="M4 21v-4a3 3 0 013-3M20 21v-4a3 3 0 00-3-3M9 21v-3a3 3 0 016 0v3"/></symbol>
  <symbol id="icon-check" viewBox="0 0 24 24" fill="none" stroke="currentColor" stroke-width="2" stroke-linecap="round" stroke-linejoin="round"><polyline points="20 6 9 17 4 12"/></symbol>
</svg>
